<?xml version="1.0" encoding="UTF-8" standalone="no"?>
<!-- Created with Inkscape (http://www.inkscape.org/) -->

<svg
   xmlns:dc="http://purl.org/dc/elements/1.1/"
   xmlns:cc="http://creativecommons.org/ns#"
   xmlns:rdf="http://www.w3.org/1999/02/22-rdf-syntax-ns#"
   xmlns:svg="http://www.w3.org/2000/svg"
   xmlns="http://www.w3.org/2000/svg"
   xmlns:sodipodi="http://sodipodi.sourceforge.net/DTD/sodipodi-0.dtd"
   xmlns:inkscape="http://www.inkscape.org/namespaces/inkscape"
   width="32"
   height="32"
   viewBox="0 0 32 32.000001"
   id="svg2"
   version="1.1"
   inkscape:version="0.91 r13725"
   sodipodi:docname="icon.svg"
   inkscape:export-filename="/home/ty/MyStuff/jasmine-stacks/icon.png"
   inkscape:export-xdpi="90"
   inkscape:export-ydpi="90">
  <defs
     id="defs4">
    <inkscape:perspective
       sodipodi:type="inkscape:persp3d"
       inkscape:vp_x="0 : 526.18111 : 1"
       inkscape:vp_y="0 : 1000 : 0"
       inkscape:vp_z="744.09448 : 526.18111 : 1"
       inkscape:persp3d-origin="372.04724 : 350.7874 : 1"
       id="perspective4198" />
  </defs>
  <sodipodi:namedview
     id="base"
     pagecolor="#ffffff"
     bordercolor="#666666"
     borderopacity="1.0"
     inkscape:pageopacity="0.0"
     inkscape:pageshadow="2"
     inkscape:zoom="1"
     inkscape:cx="352.01371"
     inkscape:cy="132.30811"
     inkscape:document-units="px"
     inkscape:current-layer="layer1"
     showgrid="false"
     inkscape:window-width="1920"
     inkscape:window-height="1022"
     inkscape:window-x="0"
     inkscape:window-y="0"
     inkscape:window-maximized="1"
     units="px" />
  <metadata
     id="metadata7">
    <rdf:RDF>
      <cc:Work
         rdf:about="">
        <dc:format>image/svg+xml</dc:format>
        <dc:type
           rdf:resource="http://purl.org/dc/dcmitype/StillImage" />
        <dc:title></dc:title>
      </cc:Work>
    </rdf:RDF>
  </metadata>
  <g
     inkscape:label="Layer 1"
     inkscape:groupmode="layer"
     id="layer1"
     transform="translate(0,-1020.3622)">
    <rect
       style="fill:#666666;fill-rule:evenodd;stroke:none;stroke-width:1px;stroke-linecap:butt;stroke-linejoin:miter;stroke-opacity:1"
       id="rect3336"
       width="29.546484"
       height="1.8139675"
       x="1.2250491"
       y="1024.8844" />
    <rect
       style="fill:#666666;fill-rule:evenodd;stroke:none;stroke-width:1px;stroke-linecap:butt;stroke-linejoin:miter;stroke-opacity:1"
       id="rect3336-6"
       width="24.41996"
       height="1.8139675"
       x="6.351573"
       y="1029.2794" />
    <rect
       style="fill:#666666;fill-rule:evenodd;stroke:none;stroke-width:1px;stroke-linecap:butt;stroke-linejoin:miter;stroke-opacity:1"
       id="rect3336-6-1"
       width="24.41996"
       height="1.8139675"
       x="6.351573"
       y="1033.6743" />
    <rect
       style="fill:#666666;fill-rule:evenodd;stroke:none;stroke-width:1px;stroke-linecap:butt;stroke-linejoin:miter;stroke-opacity:1"
       id="rect3336-6-1-8"
       width="24.41996"
       height="1.8139675"
       x="6.351573"
       y="1038.0692" />
    <rect
       style="fill:#666666;fill-rule:evenodd;stroke:none;stroke-width:1px;stroke-linecap:butt;stroke-linejoin:miter;stroke-opacity:1"
       id="rect3336-6-1-8-7"
       width="24.41996"
       height="1.8139675"
       x="6.351573"
       y="1042.4642" />
    <rect
       style="fill:#666666;fill-rule:evenodd;stroke:none;stroke-width:1px;stroke-linecap:butt;stroke-linejoin:miter;stroke-opacity:1"
       id="rect3336-6-1-8-7-9"
       width="24.41996"
       height="1.8139675"
       x="6.351573"
       y="1046.8591" />
    <g
       style="fill:#280b0b"
       transform="matrix(0.037209,0.02148263,-0.02148263,0.037209,30.313502,1014.1638)"
       id="g5173">
      <g
         style="fill:#280b0b"
         id="g5175">
        <path
           style="fill:#280b0b;stroke:none"
           d="m -79.544922,526.57227 c -67.517098,1.10783 -135.127178,-1.55469 -202.586978,1.45118 -32.81718,6.4634 -57.00352,40.67685 -52.46617,73.76748 0.67875,31.55938 -2.49318,63.46233 2.3019,94.77896 8.41084,30.60685 40.83534,51.90854 72.25901,48.04849 64.41303,-0.66815 128.87342,1.3321 193.25591,-1.06174 34.121155,-3.87787 59.6698299,-38.84099 56.236325,-72.41357 -0.246481,-7.10845 -0.371685,-14.20127 0.05078,-21.24463 -22.76302,0 -45.526041,0 -68.289062,0 10.774056,12.01612 3.12105,32.14609 -11.378906,36.84765 -9.930477,2.19784 -20.323877,-0.10222 -30.443317,0.52061 -45.75978,-0.51009 -91.82865,1.92389 -137.35355,-1.59287 -12.02769,-5.2769 -15.85592,-20.36755 -13.16443,-32.29425 0.9183,-19.98489 -3.9439,-40.92015 3.75818,-60.03192 7.85394,-10.57041 22.43986,-10.72917 34.27723,-9.28151 48.36047,0.60305 96.93569,-1.87135 145.130965,1.45143 13.541718,5.47418 18.38082,24.23601 9.841797,35.93164 22.190755,0 44.38151,0 66.572265,0 2.6300412,-23.96745 2.1697623,-51.21715 -14.216797,-70.5918 -13.063333,-15.63609 -33.423016,-24.80733 -53.785156,-24.28515 z"
           id="path5177"
           inkscape:connector-curvature="0" />
        <path
           style="fill:#280b0b;stroke:none"
           d="m 130.71094,526.60547 c -22.08539,0.39078 -44.308823,-0.19468 -66.298339,1.60302 -32.791882,7.05512 -56.3629636,41.64854 -51.629844,74.73873 0.06888,6.19889 -0.112762,12.33552 -0.423382,18.502 22.813802,0 45.627604,0 68.441406,0 -11.524294,-12.7587 -1.973515,-34.65161 14.103516,-37.5586 54.588533,1.01126 109.520193,-1.63073 164.093753,1.40235 12.66362,4.79176 17.08669,20.45753 14.15965,32.6946 -0.94819,19.93694 3.92537,41.07623 -3.77489,60.01048 -7.83691,10.55845 -22.44347,10.78571 -34.27723,9.29127 -48.3724,-0.60909 -96.96155,1.86623 -145.164174,-1.44948 -13.563414,-5.50601 -18.178545,-24.18745 -9.882812,-35.9414 -22.159505,0 -44.319011,0 -66.478516,0 -2.738048,24.21286 -2.086158,51.79958 14.675781,71.21289 16.581954,20.09482 44.688938,26.47542 69.624956,23.45928 62.719865,-0.79556 125.569575,2.06266 188.200535,-1.70101 32.64836,-7.39926 55.53784,-42.27342 50.48212,-75.16829 -0.66953,-31.6861 2.90674,-63.79607 -2.95409,-95.15443 -9.06641,-28.32872 -38.67179,-48.41696 -68.40394,-45.89693 -44.83066,0.50405 -89.66301,-0.20842 -134.4945,-0.0445 z"
           id="path5179"
           inkscape:connector-curvature="0" />
      </g>
      <path
         style="fill:#280b0b;fill-rule:evenodd;stroke:none;stroke-width:1px;stroke-linecap:butt;stroke-linejoin:miter;stroke-opacity:1"
         d="m 85.15625,601.26953 c -58.89585,1.39513 -117.928367,-1.45792 -176.755859,1.42188 -15.728041,4.48528 -22.686251,22.82009 -20.496091,37.87304 0.0928,15.92274 14.636366,31.29425 31.085932,29.12135 52.689976,-0.2901 105.390983,0.75554 158.072258,-0.20837 9.217377,-0.81438 20.11677,0.75681 27.05274,-6.74891 11.01215,-10.82183 12.54543,-28.47402 7.80274,-42.54688 -4.28353,-10.70888 -14.9315,-19.1783 -26.76172,-18.91211 z"
         id="rect5181"
         inkscape:connector-curvature="0" />
    </g>
  </g>
</svg>
